<?xml version="1.0" encoding="UTF-8"?>
<svg id="Layer_2" data-name="Layer 2" xmlns="http://www.w3.org/2000/svg" viewBox="0 0 444.4 159.91">
  <defs>
    <style>
      .cls-1 {
        letter-spacing: -.03em;
      }

      .cls-2 {
        fill: none;
        stroke: #b7926a;
        stroke-linecap: round;
        stroke-linejoin: round;
        stroke-width: 1.56px;
      }

      .cls-3 {
        letter-spacing: 0em;
      }

      .cls-4, .cls-5 {
        fill: #b8926b;
      }

      .cls-6 {
        letter-spacing: 0em;
      }

      .cls-5 {
        font-family: Cinzel-Regular, Cinzel;
        font-size: 80px;
      }
    </style>
  </defs>
  <g id="menu_4_u" data-name="menu 4 u">
    <g id="_2xl_to_xl" data-name="2xl to xl">
      <text class="cls-5" transform="translate(0 140.79)"><tspan x="0" y="0">menu4</tspan><tspan class="cls-1" x="278.88" y="0">y</tspan><tspan class="cls-3" x="327.28" y="0">o</tspan><tspan class="cls-6" x="388.4" y="0">u</tspan></text>
      <g id="logo">
        <path class="cls-4" d="m249.47,28.77v26.5s1.43,18.13-17.3,18.56v-2.16s14.11.94,14.11-16.39l-.02-26.5s-.07-4.07,3.75-4.07h3.82s-4.36,1.31-4.36,4.08Z"/>
        <path class="cls-4" d="m232.17,71.67v2.16c-3.48-.08-6.26-.77-8.49-1.84-7.39-3.56-8.64-11.32-8.81-14.87-.05-.98-.01-1.64,0-1.81,0-.03,0-.04,0-.04v-26.53c-.03-2.75-4.36-4.05-4.36-4.05h3.82c1.54,0,2.45.66,2.98,1.46.79,1.17.77,2.62.77,2.62l-.02,26.5c0,3.99.75,7.01,1.9,9.3,3.85,7.66,12.22,7.1,12.22,7.1Z"/>
        <path class="cls-4" d="m218.06,55.27l.02-26.5s.02-1.45-.77-2.62l-2.43,2.59-24.31,25.9v.67h24.31m0-3.68h-18.45l18.45-19.56v19.56Z"/>
        <path class="cls-2" d="m232.68,63.73s-11.81-1.02-10.81-18.81c0,0,.09-9.89,5.39-11.48,5.3-1.59,1.97,8.25.33,12.77,0,0,4.92-8.75,6.61-4.67,0,0,1.25,2.93-4.08,10.04,0,0,4.55-6.54,6.39-4.4,0,0,1.44,1.04-1.62,7.11,0,0-4.07,7.64,1.47,6.67,6.3-1.1,11.46-29.36-4.05-31.7"/>
        <g>
          <path class="cls-4" d="m230.14,0s3.45,3.81-.27,7.03c0,0-4.84,4.77-4.54,8.62.3,3.84,2.12,4.97,4.77,5.77,0,0-4.81-4.31-.17-9.64,4.64-5.34,5.14-9.31.2-11.76Z"/>
          <path class="cls-4" d="m236.01,3.71s3.45,3.81-.27,7.03c0,0-4.84,4.77-4.54,8.62s2.12,4.97,4.77,5.77c0,0-4.81-4.31-.17-9.64,4.64-5.34,5.14-9.31.2-11.76Z"/>
        </g>
      </g>
    </g>
  </g>
</svg>