<?xml version="1.0" encoding="UTF-8"?>
<svg id="Layer_2" data-name="Layer 2" xmlns="http://www.w3.org/2000/svg" viewBox="0 0 440.96 141.91">
  <defs>
    <style>
      .cls-1 {
        fill: none;
        stroke: #b7926a;
        stroke-linecap: round;
        stroke-linejoin: round;
        stroke-width: 1.56px;
      }

      .cls-2 {
        fill: #b8926b;
      }
    </style>
  </defs>
  <g id="menu_4_u" data-name="menu 4 u">
    <g id="_2xl_to_xl" data-name="2xl to xl">
      <g>
        <path class="cls-2" d="m67.84,139.99h1.2v.8h-16.64v-.72h1.2c.8,0,1.51-.31,2.12-.92.61-.61.87-1.35.76-2.2l-4.16-32.96-15.12,29.76c-1.49,3.25-2.43,5.97-2.8,8.16h-.8l-19.28-37.2-3.6,32.24c-.11.8.15,1.52.76,2.16.61.64,1.35.96,2.2.96h1.12v.72H0v-.8h1.2c1.92,0,3.41-.69,4.48-2.08.53-.69.85-1.52.96-2.48l6.24-43.76h.8l21.12,40.64,20.4-40.64h.72l6.48,43.92c.21,1.33.83,2.4,1.84,3.2,1.01.8,2.21,1.2,3.6,1.2Z"/>
        <path class="cls-2" d="m75.12,139.99c1.28,0,2.36-.41,3.24-1.24.88-.83,1.35-1.83,1.4-3v-38c0-1.17-.45-2.16-1.36-2.96-.91-.8-2-1.2-3.28-1.2h-1.12v-.8h23.36c2.19,0,4.11-.16,5.76-.48,1.65-.32,2.72-.59,3.2-.8v9.12l-.88-.08v-1.2c0-1.12-.37-2.08-1.12-2.88-.75-.8-1.71-1.2-2.88-1.2h-16.64v20.32h13.68c1.07,0,1.88-.32,2.44-.96.56-.64.84-1.44.84-2.4v-1.04h.88v11.2h-.88v-1.04c0-1.49-.56-2.51-1.68-3.04-.43-.16-.88-.27-1.36-.32h-13.92v20.32h12.56c2.45,0,4.52-.43,6.2-1.28,1.68-.85,2.96-1.87,3.84-3.04.88-1.17,1.77-2.72,2.68-4.64h.8l-4.4,11.44h-32.48v-.8h1.12Z"/>
        <path class="cls-2" d="m171.44,93.59c-1.17,0-2.19.39-3.04,1.16-.85.77-1.31,1.72-1.36,2.84v34.08c0,3.09.19,6.03.56,8.8l.16,1.44h-.72l-41.6-39.44v33.36c0,1.17.43,2.16,1.28,2.96.85.8,1.89,1.2,3.12,1.2h1.36v.8h-15.12v-.8h1.36c1.23,0,2.27-.4,3.12-1.2.85-.8,1.28-1.79,1.28-2.96v-34.24c0-3.25-.19-6.16-.56-8.72l-.16-1.28.88.08,41.52,39.12v-33.2c-.11-1.12-.59-2.07-1.44-2.84-.85-.77-1.87-1.16-3.04-1.16h-1.36v-.8h15.12v.8h-1.36Z"/>
        <path class="cls-2" d="m228.8,93.59h-1.2c-1.44,0-2.54.56-3.28,1.68-.32.48-.51,1.04-.56,1.68v26.96c0,5.55-1.77,9.93-5.32,13.16-3.55,3.23-8.41,4.84-14.6,4.84s-11.07-1.6-14.64-4.8c-3.57-3.2-5.36-7.57-5.36-13.12v-26.96c0-.96-.37-1.77-1.12-2.44-.75-.67-1.65-1-2.72-1h-1.2v-.8h15.2v.8h-1.2c-1.07,0-1.97.33-2.72,1-.75.67-1.12,1.48-1.12,2.44v26c0,5.17,1.32,9.25,3.96,12.24,2.64,2.99,6.37,4.48,11.2,4.48s8.69-1.41,11.6-4.24c2.91-2.83,4.36-6.69,4.36-11.6v-26.88c-.05-1.01-.44-1.84-1.16-2.48-.72-.64-1.61-.96-2.68-.96h-1.2v-.8h13.76v.8Z"/>
        <path class="cls-2" d="m264.88,120.87v14.88c0,1.17.43,2.17,1.28,3,.85.83,1.89,1.24,3.12,1.24h.88v.8h-15.84l.08-.8h.8c1.23,0,2.27-.4,3.12-1.2.85-.8,1.31-1.79,1.36-2.96v-14.96h-24.88v-.8l29.28-36.4h.8v32.8h3.44c1.39,0,2.33-.11,2.84-.32.51-.21,1.03-.64,1.56-1.28h.8l-1.68,6h-6.96Zm-5.2-4.4v-23.36l-18.88,23.36h18.88Z"/>
        <path class="cls-2" d="m329.84,93.59h-.96c-1.44,0-2.81.39-4.12,1.16-1.31.77-2.39,1.75-3.24,2.92l-15.36,23.28v14.72c0,1.17.45,2.19,1.36,3.04.91.85,2,1.28,3.28,1.28h.96v.8h-16.4v-.8h.96c1.28,0,2.37-.43,3.28-1.28.91-.85,1.36-1.87,1.36-3.04v-14.8l-14.8-23.28c-1.81-2.67-4.27-4-7.36-4h-.96v-.8h18.56v.8h-.96c-1.01,0-1.75.32-2.2.96-.45.64-.68,1.19-.68,1.64s.05.87.16,1.24l11.68,20.72,12.4-20.64c.16-.43.24-.87.24-1.32s-.23-1-.68-1.64c-.45-.64-1.21-.96-2.28-.96h-.96v-.8h16.72v.8Z"/>
        <path class="cls-2" d="m344.08,94.83c4.11-2.11,8.63-3.16,13.56-3.16s9.45,1.05,13.56,3.16c4.11,2.11,7.37,5.08,9.8,8.92,2.43,3.84,3.64,8.19,3.64,13.04s-1.21,9.2-3.64,13.04c-2.43,3.84-5.69,6.81-9.8,8.92-4.11,2.11-8.32,3.16-12.64,3.16s-8.13-.61-11.44-1.84c-3.31-1.23-6.17-2.93-8.6-5.12-2.43-2.19-4.35-4.85-5.76-8-1.41-3.15-2.12-6.84-2.12-11.08s1.21-8.28,3.64-12.12,5.69-6.81,9.8-8.92Zm-1.48,38.32c4.03,4.24,9.03,6.36,15,6.36s10.99-2.12,15.04-6.36c4.05-4.24,6.08-9.69,6.08-16.36s-2.03-12.12-6.08-16.36c-4.05-4.24-9.07-6.36-15.04-6.36s-10.97,2.12-15,6.36c-4.03,4.24-6.04,9.69-6.04,16.36s2.01,12.12,6.04,16.36Z"/>
        <path class="cls-2" d="m440.96,93.59h-1.2c-1.44,0-2.53.56-3.28,1.68-.32.48-.51,1.04-.56,1.68v26.96c0,5.55-1.77,9.93-5.32,13.16-3.55,3.23-8.41,4.84-14.6,4.84s-11.07-1.6-14.64-4.8c-3.57-3.2-5.36-7.57-5.36-13.12v-26.96c0-.96-.37-1.77-1.12-2.44-.75-.67-1.65-1-2.72-1h-1.2v-.8h15.2v.8h-1.2c-1.07,0-1.97.33-2.72,1-.75.67-1.12,1.48-1.12,2.44v26c0,5.17,1.32,9.25,3.96,12.24,2.64,2.99,6.37,4.48,11.2,4.48s8.69-1.41,11.6-4.24c2.91-2.83,4.36-6.69,4.36-11.6v-26.88c-.05-1.01-.44-1.84-1.16-2.48-.72-.64-1.61-.96-2.68-.96h-1.2v-.8h13.76v.8Z"/>
      </g>
      <g id="logo">
        <path class="cls-2" d="m248.83,28.77v26.5s1.43,18.13-17.3,18.56v-2.16s14.11.94,14.11-16.39l-.02-26.5s-.07-4.07,3.75-4.07h3.82s-4.36,1.31-4.36,4.08Z"/>
        <path class="cls-2" d="m231.53,71.67v2.16c-3.48-.08-6.26-.77-8.49-1.84-7.39-3.56-8.64-11.32-8.81-14.87-.05-.98-.01-1.64,0-1.81,0-.03,0-.04,0-.04v-26.53c-.03-2.75-4.36-4.05-4.36-4.05h3.82c1.54,0,2.45.66,2.98,1.46.79,1.17.77,2.62.77,2.62l-.02,26.5c0,3.99.75,7.01,1.9,9.3,3.85,7.66,12.22,7.1,12.22,7.1Z"/>
        <path class="cls-2" d="m217.42,55.27l.02-26.5s.02-1.45-.77-2.62l-2.43,2.59-24.31,25.9v.67h24.31m0-3.68h-18.45l18.45-19.56v19.56Z"/>
        <path class="cls-1" d="m232.04,63.73s-11.81-1.02-10.81-18.81c0,0,.09-9.89,5.39-11.48,5.3-1.59,1.97,8.25.33,12.77,0,0,4.92-8.75,6.61-4.67,0,0,1.25,2.93-4.08,10.04,0,0,4.55-6.54,6.39-4.4,0,0,1.44,1.04-1.62,7.11,0,0-4.07,7.64,1.47,6.67,6.3-1.1,11.46-29.36-4.05-31.7"/>
        <g>
          <path class="cls-2" d="m229.5,0s3.45,3.81-.27,7.03c0,0-4.84,4.77-4.54,8.62.3,3.84,2.12,4.97,4.77,5.77,0,0-4.81-4.31-.17-9.64,4.64-5.34,5.14-9.31.2-11.76Z"/>
          <path class="cls-2" d="m235.37,3.71s3.45,3.81-.27,7.03c0,0-4.84,4.77-4.54,8.62s2.12,4.97,4.77,5.77c0,0-4.81-4.31-.17-9.64,4.64-5.34,5.14-9.31.2-11.76Z"/>
        </g>
      </g>
    </g>
  </g>
</svg>